<svg width="51" height="21" viewBox="0 0 51 21" fill="none" xmlns="http://www.w3.org/2000/svg">
<g clip-path="url(#clip0_176_82)">
<path d="M39.7556 0.000980552H26.9523C26.9523 0.000980552 26.9493 0 26.9469 0H2.00845C0.900117 0 0.00195312 0.88838 0.00195312 1.98415V4.32816C0.00195312 4.34581 0.0163277 4.36003 0.034172 4.36003H6.32082C6.33866 4.36003 6.35304 4.37424 6.35304 4.39189V20.9667C6.35304 20.9843 6.36741 20.9985 6.38526 20.9985H11.0719C11.0897 20.9985 11.1041 20.9843 11.1041 20.9667V4.39238C11.1041 4.37473 11.1185 4.36052 11.1363 4.36052H16.6705C15.8888 5.43471 15.3104 6.66481 14.9857 8.00131C14.9837 8.00964 14.9818 8.01798 14.9798 8.02582C14.9634 8.09495 14.9476 8.16408 14.9322 8.2337C14.9287 8.2489 14.9257 8.2641 14.9223 8.27929C14.9084 8.34352 14.8955 8.40775 14.8826 8.47246C14.8787 8.49354 14.8747 8.51463 14.8707 8.53571C14.8593 8.59552 14.8484 8.65583 14.838 8.71662C14.8335 8.74309 14.8291 8.76908 14.8251 8.79555C14.8162 8.85194 14.8073 8.90832 14.7988 8.96519C14.7944 8.99608 14.7899 9.02746 14.786 9.05834C14.7785 9.11129 14.7716 9.16424 14.7651 9.21768C14.7607 9.25298 14.7572 9.28877 14.7532 9.32407C14.7478 9.37359 14.7423 9.4236 14.7374 9.47361C14.7334 9.51381 14.7304 9.55401 14.727 9.59421C14.723 9.6403 14.719 9.68639 14.7156 9.73247C14.7121 9.77807 14.7096 9.82415 14.7071 9.86975C14.7047 9.91142 14.7017 9.9531 14.6997 9.99477C14.6972 10.0487 14.6953 10.1031 14.6938 10.1575C14.6928 10.1919 14.6908 10.2257 14.6903 10.26C14.6883 10.3473 14.6868 10.4345 14.6868 10.5223C14.6868 10.5238 14.6868 10.5257 14.6868 10.5272C14.6868 11.3416 14.7731 12.128 14.9361 12.88C15.9696 17.6416 20.1174 20.9995 25.385 20.9995C31.4149 20.9995 36.1382 16.3757 36.1382 10.4728C36.1382 8.15182 35.4427 6.05295 34.2348 4.35414L39.7561 4.3615C43.5545 4.3615 46.1062 6.81729 46.1062 10.4728C46.1062 14.1283 43.5545 16.6405 39.7561 16.6405C38.0609 16.6405 36.6864 18 36.6864 19.6767V21.0005H39.7561C46.2717 21.0005 51.0005 16.5968 51.0005 10.5292C51.0005 4.46151 46.2712 0.000980552 39.7556 0.000980552ZM25.5079 16.641H25.4945C25.4945 16.641 25.4911 16.641 25.4891 16.641C25.4727 16.641 25.4564 16.6414 25.44 16.6414C22.0714 16.6414 19.5311 13.9895 19.5311 10.4728C19.5311 7.26099 21.6669 4.77725 24.6127 4.40562C24.6573 4.40023 24.7019 4.39533 24.747 4.39091C24.9513 4.36983 25.159 4.35856 25.3696 4.35807H25.4132C25.4692 4.35807 25.5253 4.35954 25.5808 4.36101C25.6636 4.36444 25.7766 4.36983 25.8821 4.37768C25.958 4.38356 26.0328 4.39091 26.1072 4.39974C26.1429 4.40415 26.1989 4.41151 26.2331 4.41592L26.2395 4.4169C29.1744 4.82383 31.2939 7.31443 31.2939 10.5272C31.2939 13.9895 28.8111 16.6057 25.5079 16.6414V16.641Z" fill="#FFBC00"/>
<path style="mix-blend-mode:multiply" d="M25.3692 4.35817H25.4128C25.4688 4.35817 25.5248 4.35964 25.5804 4.36111C25.6631 4.36454 25.7761 4.36994 25.8817 4.37778C25.9576 4.38366 26.0324 4.39102 26.1068 4.39984C26.1424 4.40426 26.1985 4.41161 26.2327 4.41602L26.2391 4.417C29.174 4.82393 31.2935 7.31454 31.2935 10.5273C31.2935 13.9896 28.8107 16.6058 25.5075 16.6415H25.4941C25.4941 16.6415 25.4906 16.6415 25.4886 16.6415C25.4723 16.6415 25.4559 16.642 25.4396 16.642C25.2958 16.642 25.1541 16.6366 25.0138 16.6273C25.0138 18.357 25.0138 19.9117 25.0148 20.9932C25.1377 20.9972 25.2606 20.9996 25.3846 20.9996C31.4144 20.9996 36.1377 16.3758 36.1377 10.4729C36.1377 8.15193 35.4423 6.05306 34.2343 4.35425" fill="url(#paint0_linear_176_82)"/>
<g style="mix-blend-mode:multiply">
<path style="mix-blend-mode:multiply" d="M24.8026 0H2.006C0.898163 0 0 0.888381 0 1.98415V4.32816C0 4.34581 5.38402 4.36003 5.40187 4.36003H16.6705C18.4877 1.85128 21.4107 0.189247 24.8026 0Z" fill="url(#paint1_linear_176_82)"/>
</g>
</g>
<defs>
<linearGradient id="paint0_linear_176_82" x1="30.5758" y1="20.1617" x2="30.5758" y2="2.92705" gradientUnits="userSpaceOnUse">
<stop stop-color="white" stop-opacity="0"/>
<stop offset="0.38" stop-color="#C0BFBF" stop-opacity="0.28"/>
<stop offset="1" stop-color="#231F20"/>
</linearGradient>
<linearGradient id="paint1_linear_176_82" x1="7.85347" y1="-2.14594" x2="17.378" y2="7.08085" gradientUnits="userSpaceOnUse">
<stop offset="0.54" stop-color="white" stop-opacity="0"/>
<stop offset="0.78" stop-color="#7B7879" stop-opacity="0.6"/>
<stop offset="1" stop-color="#231F20"/>
</linearGradient>
<clipPath id="clip0_176_82">
<rect width="51" height="21" fill="white"/>
</clipPath>
</defs>
</svg>
